<svg width="1659" height="308" viewBox="0 0 1659 308" fill="none" xmlns="http://www.w3.org/2000/svg">
<g opacity="0.1" filter="url(#filter0_d_7_78)">
<path d="M276.614 149.545C276.614 181.269 270.6 208.258 258.574 230.511C246.642 252.765 230.354 269.763 209.71 281.506C189.161 293.153 166.055 298.977 140.392 298.977C114.54 298.977 91.339 293.106 70.7898 281.364C50.2405 269.621 34 252.623 22.0682 230.369C10.1364 208.116 4.17045 181.174 4.17045 149.545C4.17045 117.822 10.1364 90.8333 22.0682 68.5795C34 46.3258 50.2405 29.375 70.7898 17.7273C91.339 5.98484 114.54 0.113626 140.392 0.113626C166.055 0.113626 189.161 5.98484 209.71 17.7273C230.354 29.375 246.642 46.3258 258.574 68.5795C270.6 90.8333 276.614 117.822 276.614 149.545ZM214.256 149.545C214.256 128.996 211.178 111.667 205.023 97.5568C198.962 83.447 190.392 72.7462 179.312 65.4545C168.233 58.1629 155.259 54.517 140.392 54.517C125.525 54.517 112.551 58.1629 101.472 65.4545C90.392 72.7462 81.7746 83.447 75.6193 97.5568C69.5587 111.667 66.5284 128.996 66.5284 149.545C66.5284 170.095 69.5587 187.424 75.6193 201.534C81.7746 215.644 90.392 226.345 101.472 233.636C112.551 240.928 125.525 244.574 140.392 244.574C155.259 244.574 168.233 240.928 179.312 233.636C190.392 226.345 198.962 215.644 205.023 201.534C211.178 187.424 214.256 170.095 214.256 149.545ZM578.851 105.938H516.635C515.499 97.8883 513.179 90.7386 509.675 84.4886C506.171 78.1439 501.673 72.7462 496.18 68.2955C490.688 63.8447 484.343 60.4356 477.146 58.0682C470.044 55.7008 462.326 54.517 453.993 54.517C438.936 54.517 425.821 58.2576 414.646 65.7386C403.472 73.125 394.807 83.9205 388.652 98.125C382.497 112.235 379.419 129.375 379.419 149.545C379.419 170.284 382.497 187.708 388.652 201.818C394.902 215.928 403.614 226.581 414.788 233.778C425.963 240.975 438.889 244.574 453.567 244.574C461.805 244.574 469.429 243.485 476.436 241.307C483.538 239.129 489.836 235.956 495.328 231.79C500.821 227.528 505.366 222.367 508.964 216.307C512.658 210.246 515.214 203.333 516.635 195.568L578.851 195.852C577.241 209.205 573.216 222.083 566.777 234.489C560.432 246.799 551.862 257.831 541.067 267.585C530.366 277.244 517.582 284.915 502.714 290.597C487.942 296.184 471.228 298.977 452.572 298.977C426.625 298.977 403.425 293.106 382.97 281.364C362.61 269.621 346.512 252.623 334.675 230.369C322.932 208.116 317.061 181.174 317.061 149.545C317.061 117.822 323.027 90.8333 334.959 68.5795C346.891 46.3258 363.084 29.375 383.538 17.7273C403.993 5.98484 427.004 0.113626 452.572 0.113626C469.429 0.113626 485.054 2.48105 499.447 7.2159C513.936 11.9508 526.768 18.8636 537.942 27.9545C549.116 36.9507 558.207 47.9829 565.214 61.0511C572.317 74.1193 576.862 89.0814 578.851 105.938ZM802.643 4.0909H864.149V193.011C864.149 214.223 859.083 232.784 848.95 248.693C838.912 264.602 824.85 277.008 806.763 285.909C788.676 294.716 767.606 299.119 743.553 299.119C719.405 299.119 698.287 294.716 680.2 285.909C662.113 277.008 648.051 264.602 638.013 248.693C627.975 232.784 622.956 214.223 622.956 193.011V4.0909H684.462V187.756C684.462 198.835 686.876 208.684 691.706 217.301C696.63 225.919 703.543 232.689 712.445 237.614C721.346 242.538 731.715 245 743.553 245C755.484 245 765.854 242.538 774.661 237.614C783.562 232.689 790.428 225.919 795.257 217.301C800.181 208.684 802.643 198.835 802.643 187.756V4.0909ZM914.753 295V4.0909H976.259V244.29H1100.97V295H914.753ZM1321.39 4.0909H1382.9V193.011C1382.9 214.223 1377.83 232.784 1367.7 248.693C1357.66 264.602 1343.6 277.008 1325.51 285.909C1307.43 294.716 1286.36 299.119 1262.3 299.119C1238.15 299.119 1217.04 294.716 1198.95 285.909C1180.86 277.008 1166.8 264.602 1156.76 248.693C1146.72 232.784 1141.71 214.223 1141.71 193.011V4.0909H1203.21V187.756C1203.21 198.835 1205.63 208.684 1210.46 217.301C1215.38 225.919 1222.29 232.689 1231.19 237.614C1240.1 242.538 1250.47 245 1262.3 245C1274.23 245 1284.6 242.538 1293.41 237.614C1302.31 232.689 1309.18 225.919 1314.01 217.301C1318.93 208.684 1321.39 198.835 1321.39 187.756V4.0909ZM1591.32 87.7557C1590.18 76.2973 1585.3 67.3958 1576.68 61.0511C1568.07 54.7064 1556.37 51.5341 1541.6 51.5341C1531.56 51.5341 1523.09 52.9545 1516.17 55.7955C1509.26 58.5417 1503.96 62.3769 1500.26 67.3011C1496.67 72.2254 1494.87 77.8125 1494.87 84.0625C1494.68 89.2708 1495.77 93.8163 1498.13 97.6989C1500.6 101.581 1503.96 104.943 1508.22 107.784C1512.48 110.53 1517.4 112.945 1522.99 115.028C1528.58 117.017 1534.54 118.722 1540.89 120.142L1567.03 126.392C1579.71 129.233 1591.36 133.021 1601.97 137.756C1612.57 142.491 1621.76 148.314 1629.53 155.227C1637.29 162.14 1643.3 170.284 1647.57 179.659C1651.92 189.034 1654.15 199.782 1654.24 211.903C1654.15 229.706 1649.6 245.142 1640.61 258.21C1631.7 271.184 1618.82 281.269 1601.97 288.466C1585.21 295.568 1564.99 299.119 1541.32 299.119C1517.83 299.119 1497.38 295.521 1479.95 288.324C1462.62 281.127 1449.08 270.473 1439.33 256.364C1429.67 242.159 1424.6 224.593 1424.13 203.665H1483.64C1484.31 213.419 1487.1 221.562 1492.03 228.097C1497.04 234.536 1503.72 239.413 1512.05 242.727C1520.48 245.947 1530 247.557 1540.61 247.557C1551.02 247.557 1560.07 246.042 1567.74 243.011C1575.5 239.981 1581.51 235.767 1585.78 230.369C1590.04 224.972 1592.17 218.769 1592.17 211.761C1592.17 205.227 1590.23 199.735 1586.34 195.284C1582.56 190.833 1576.97 187.045 1569.58 183.92C1562.29 180.795 1553.34 177.955 1542.74 175.398L1511.06 167.443C1486.53 161.477 1467.17 152.15 1452.96 139.46C1438.76 126.771 1431.7 109.678 1431.8 88.1818C1431.7 70.5682 1436.39 55.1799 1445.86 42.017C1455.43 28.8542 1468.54 18.5795 1485.21 11.1932C1501.87 3.80681 1520.81 0.113626 1542.03 0.113626C1563.62 0.113626 1582.46 3.80681 1598.56 11.1932C1614.75 18.5795 1627.35 28.8542 1636.34 42.017C1645.34 55.1799 1649.98 70.4261 1650.26 87.7557H1591.32Z" fill="url(#paint0_linear_7_78)" shape-rendering="crispEdges"/>
<path d="M258.574 230.511L257.694 230.036L257.693 230.039L258.574 230.511ZM209.71 281.506L210.203 282.376L210.205 282.375L209.71 281.506ZM70.7898 281.364L71.2859 280.495L71.2859 280.495L70.7898 281.364ZM22.0682 230.369L21.1869 230.842L21.1869 230.842L22.0682 230.369ZM22.0682 68.5795L22.9495 69.0521L22.9495 69.0521L22.0682 68.5795ZM70.7898 17.7273L71.2829 18.5972L71.2859 18.5955L70.7898 17.7273ZM209.71 17.7273L209.214 18.5955L209.219 18.5982L209.71 17.7273ZM258.574 68.5795L257.693 69.0521L257.694 69.055L258.574 68.5795ZM205.023 97.5568L204.104 97.9515L204.106 97.9567L205.023 97.5568ZM179.312 65.4545L178.763 66.2899L178.763 66.2899L179.312 65.4545ZM101.472 65.4545L102.021 66.2899L102.021 66.2899L101.472 65.4545ZM75.6193 97.5568L74.7027 97.157L74.7005 97.1621L75.6193 97.5568ZM75.6193 201.534L74.7005 201.929L74.7027 201.934L75.6193 201.534ZM101.472 233.636L102.021 232.801L102.021 232.801L101.472 233.636ZM179.312 233.636L178.763 232.801L178.763 232.801L179.312 233.636ZM205.023 201.534L204.106 201.134L204.104 201.139L205.023 201.534ZM275.614 149.545C275.614 181.144 269.624 207.961 257.694 230.036L259.454 230.987C271.577 208.554 277.614 181.394 277.614 149.545H275.614ZM257.693 230.039C245.844 252.138 229.686 268.993 209.216 280.636L210.205 282.375C231.023 270.533 247.44 253.393 259.455 230.984L257.693 230.039ZM209.217 280.636C188.831 292.191 165.897 297.977 140.392 297.977V299.977C166.212 299.977 189.491 294.116 210.203 282.376L209.217 280.636ZM140.392 297.977C114.697 297.977 91.6703 292.144 71.2859 280.495L70.2936 282.232C91.0077 294.068 114.382 299.977 140.392 299.977V297.977ZM71.2859 280.495C50.9107 268.852 34.7988 251.997 22.9495 229.897L21.1869 230.842C33.2012 253.25 49.5704 270.39 70.2936 282.232L71.2859 280.495ZM22.9495 229.897C11.1129 207.821 5.17045 181.05 5.17045 149.545H3.17045C3.17045 181.298 9.15987 208.411 21.1869 230.842L22.9495 229.897ZM5.17045 149.545C5.17045 117.945 11.1131 91.128 22.9495 69.0521L21.1869 68.107C9.15966 90.5387 3.17045 117.699 3.17045 149.545H5.17045ZM22.9495 69.0521C34.7985 46.9528 50.9094 30.1453 71.2829 18.5972L70.2967 16.8573C49.5716 28.6047 33.2015 45.6987 21.1869 68.107L22.9495 69.0521ZM71.2859 18.5955C91.6703 6.94727 114.697 1.11363 140.392 1.11363V-0.886374C114.382 -0.886374 91.0077 5.02242 70.2936 16.859L71.2859 18.5955ZM140.392 1.11363C165.896 1.11363 188.829 6.94663 209.214 18.5955L210.206 16.859C189.493 5.02305 166.214 -0.886374 140.392 -0.886374V1.11363ZM209.219 18.5982C229.687 30.1466 245.844 46.954 257.693 69.0521L259.455 68.107C247.44 45.6975 231.022 28.6034 210.202 16.8563L209.219 18.5982ZM257.694 69.055C269.624 91.1302 275.614 117.947 275.614 149.545H277.614C277.614 117.697 271.577 90.5365 259.454 68.1041L257.694 69.055ZM215.256 149.545C215.256 128.902 212.165 111.428 205.939 97.157L204.106 97.9567C210.191 111.906 213.256 129.09 213.256 149.545H215.256ZM205.942 97.1621C199.816 82.9015 191.13 72.0347 179.862 64.6192L178.763 66.2899C189.654 73.4578 198.108 83.9924 204.104 97.9515L205.942 97.1621ZM179.862 64.6192C168.6 57.2074 155.43 53.517 140.392 53.517V55.517C155.089 55.517 167.866 59.1183 178.763 66.2899L179.862 64.6192ZM140.392 53.517C125.354 53.517 112.184 57.2074 100.922 64.6192L102.021 66.2899C112.918 59.1183 125.696 55.517 140.392 55.517V53.517ZM100.922 64.6192C89.6557 72.0337 80.9228 82.8987 74.7027 97.157L76.5359 97.9567C82.6264 83.9953 91.1284 73.4588 102.021 66.2899L100.922 64.6192ZM74.7005 97.1621C68.5715 111.431 65.5284 128.904 65.5284 149.545H67.5284C67.5284 129.089 70.5459 111.902 76.5381 97.9515L74.7005 97.1621ZM65.5284 149.545C65.5284 170.187 68.5715 187.66 74.7005 201.929L76.5381 201.139C70.5459 187.189 67.5284 170.002 67.5284 149.545H65.5284ZM74.7027 201.934C80.9228 216.192 89.6557 227.057 100.922 234.472L102.021 232.801C91.1284 225.632 82.6264 215.096 76.5359 201.134L74.7027 201.934ZM100.922 234.472C112.184 241.883 125.354 245.574 140.392 245.574V243.574C125.696 243.574 112.918 239.973 102.021 232.801L100.922 234.472ZM140.392 245.574C155.43 245.574 168.6 241.883 179.862 234.472L178.763 232.801C167.866 239.973 155.089 243.574 140.392 243.574V245.574ZM179.862 234.472C191.13 227.056 199.816 216.189 205.942 201.929L204.104 201.139C198.108 215.099 189.654 225.633 178.763 232.801L179.862 234.472ZM205.939 201.934C212.165 187.663 215.256 170.189 215.256 149.545H213.256C213.256 170.001 210.191 187.185 204.106 201.134L205.939 201.934ZM578.851 105.938V106.938H579.976L579.844 105.82L578.851 105.938ZM516.635 105.938L515.645 106.077L515.766 106.938H516.635V105.938ZM509.675 84.4886L508.799 84.9721L508.802 84.9776L509.675 84.4886ZM496.18 68.2955L495.551 69.0724L495.551 69.0724L496.18 68.2955ZM477.146 58.0682L476.83 59.0169L476.834 59.0181L477.146 58.0682ZM414.646 65.7386L415.198 66.5729L415.203 66.5696L414.646 65.7386ZM388.652 98.125L389.569 98.5249L389.57 98.5226L388.652 98.125ZM388.652 201.818L387.735 202.218L387.738 202.223L388.652 201.818ZM414.788 233.778L414.247 234.619L414.247 234.619L414.788 233.778ZM476.436 241.307L476.143 240.351L476.139 240.352L476.436 241.307ZM495.328 231.79L495.933 232.587L495.941 232.58L495.328 231.79ZM508.964 216.307L508.111 215.786L508.105 215.796L508.964 216.307ZM516.635 195.568L516.64 194.568L515.802 194.564L515.651 195.388L516.635 195.568ZM578.851 195.852L579.844 195.972L579.978 194.857L578.855 194.852L578.851 195.852ZM566.777 234.489L565.889 234.028L565.888 234.031L566.777 234.489ZM541.067 267.585L541.737 268.328L541.737 268.327L541.067 267.585ZM502.714 290.597L503.068 291.532L503.071 291.531L502.714 290.597ZM382.97 281.364L382.471 282.23L382.472 282.231L382.97 281.364ZM334.675 230.369L333.79 230.836L333.792 230.839L334.675 230.369ZM334.959 68.5795L335.84 69.0521L335.84 69.0521L334.959 68.5795ZM383.538 17.7273L384.033 18.5963L384.036 18.5945L383.538 17.7273ZM499.447 7.2159L499.135 8.16583L499.137 8.16643L499.447 7.2159ZM537.942 27.9545L537.311 28.7302L537.315 28.7335L537.942 27.9545ZM565.214 61.0511L564.333 61.5237L564.336 61.5286L565.214 61.0511ZM578.851 104.938H516.635V106.938H578.851V104.938ZM517.625 105.798C516.474 97.6421 514.119 90.3713 510.547 83.9996L508.802 84.9776C512.238 91.106 514.523 98.1344 515.645 106.077L517.625 105.798ZM510.55 84.0052C506.986 77.5507 502.405 72.0524 496.81 67.5185L495.551 69.0724C500.941 73.44 505.356 78.7372 508.799 84.972L510.55 84.0052ZM496.81 67.5185C491.217 62.986 484.763 59.5209 477.459 57.1182L476.834 59.0181C483.924 61.3503 490.159 64.7034 495.551 69.0724L496.81 67.5185ZM477.463 57.1195C470.247 54.7145 462.422 53.517 453.993 53.517V55.517C462.231 55.517 469.841 56.687 476.83 59.0169L477.463 57.1195ZM453.993 53.517C438.763 53.517 425.448 57.3035 414.09 64.9077L415.203 66.5696C426.193 59.2117 439.11 55.517 453.993 55.517V53.517ZM414.095 64.9044C402.735 72.4136 393.955 83.3733 387.734 97.7274L389.57 98.5226C395.66 84.4676 404.209 73.8364 415.198 66.5728L414.095 64.9044ZM387.735 97.7251C381.511 111.994 378.419 129.278 378.419 149.545H380.419C380.419 129.472 383.483 112.476 389.569 98.5249L387.735 97.7251ZM378.419 149.545C378.419 170.377 381.51 187.946 387.735 202.218L389.569 201.418C383.484 187.47 380.419 170.192 380.419 149.545H378.419ZM387.738 202.223C394.054 216.482 402.883 227.3 414.247 234.619L415.33 232.938C404.345 225.863 395.75 215.374 389.566 201.413L387.738 202.223ZM414.247 234.619C425.599 241.931 438.717 245.574 453.567 245.574V243.574C439.06 243.574 426.326 240.02 415.33 232.938L414.247 234.619ZM453.567 245.574C461.894 245.574 469.618 244.473 476.733 242.262L476.139 240.352C469.239 242.497 461.717 243.574 453.567 243.574V245.574ZM476.729 242.263C483.935 240.053 490.34 236.829 495.933 232.586L494.724 230.993C489.332 235.083 483.142 238.204 476.143 240.351L476.729 242.263ZM495.941 232.58C501.534 228.241 506.163 222.984 509.824 216.817L508.105 215.796C504.569 221.751 500.107 226.816 494.715 231L495.941 232.58ZM509.818 216.827C513.582 210.651 516.179 203.62 517.619 195.748L515.651 195.388C514.25 203.046 511.733 209.842 508.111 215.786L509.818 216.827ZM516.63 196.568L578.846 196.852L578.855 194.852L516.64 194.568L516.63 196.568ZM577.858 195.733C576.263 208.961 572.276 221.725 565.889 234.028L567.665 234.949C574.157 222.442 578.219 209.448 579.844 195.972L577.858 195.733ZM565.888 234.031C559.601 246.229 551.107 257.166 540.396 266.843L541.737 268.327C552.617 258.497 561.263 247.37 567.666 234.947L565.888 234.031ZM540.397 266.843C529.797 276.411 517.122 284.02 502.358 289.662L503.071 291.531C518.042 285.809 530.935 278.078 541.737 268.328L540.397 266.843ZM502.361 289.661C487.72 295.199 471.128 297.977 452.572 297.977V299.977C471.327 299.977 488.164 297.169 503.068 291.532L502.361 289.661ZM452.572 297.977C426.782 297.977 403.756 292.143 383.468 280.496L382.472 282.231C403.093 294.069 426.469 299.977 452.572 299.977V297.977ZM383.47 280.497C363.284 268.855 347.313 252 335.558 229.9L333.792 230.839C345.71 253.246 361.936 270.387 382.471 282.23L383.47 280.497ZM335.559 229.903C323.91 207.825 318.061 181.053 318.061 149.545H316.061C316.061 181.296 321.955 208.406 333.79 230.836L335.559 229.903ZM318.061 149.545C318.061 117.945 324.004 91.128 335.84 69.0521L334.077 68.107C322.05 90.5387 316.061 117.699 316.061 149.545H318.061ZM335.84 69.0521C347.69 46.9516 363.754 30.144 384.033 18.5963L383.044 16.8583C362.413 28.606 346.092 45.6999 334.077 68.107L335.84 69.0521ZM384.036 18.5945C404.327 6.94631 427.164 1.11363 452.572 1.11363V-0.886374C426.845 -0.886374 403.659 5.02337 383.04 16.86L384.036 18.5945ZM452.572 1.11363C469.334 1.11363 484.853 3.46765 499.135 8.16583L499.76 6.26597C485.254 1.49445 469.523 -0.886374 452.572 -0.886374V1.11363ZM499.137 8.16643C513.516 12.8654 526.237 19.7212 537.311 28.7302L538.573 27.1788C527.298 18.006 514.356 11.0361 499.758 6.26537L499.137 8.16643ZM537.315 28.7335C548.381 37.6428 557.387 48.5696 564.333 61.5237L566.096 60.5785C559.027 47.3963 549.851 36.2587 538.569 27.1756L537.315 28.7335ZM564.336 61.5286C571.369 74.4704 575.882 89.3072 577.858 106.055L579.844 105.82C577.843 88.8556 573.264 73.7682 566.093 60.5736L564.336 61.5286ZM802.643 4.0909V3.0909H801.643V4.0909H802.643ZM864.149 4.0909H865.149V3.0909H864.149V4.0909ZM848.95 248.693L848.107 248.156L848.105 248.16L848.95 248.693ZM806.763 285.909L807.201 286.808L807.204 286.806L806.763 285.909ZM680.2 285.909L679.759 286.806L679.763 286.808L680.2 285.909ZM638.013 248.693L637.167 249.227L637.167 249.227L638.013 248.693ZM622.956 4.0909V3.0909H621.956V4.0909H622.956ZM684.462 4.0909H685.462V3.0909H684.462V4.0909ZM691.706 217.301L690.834 217.79L690.838 217.797L691.706 217.301ZM712.445 237.614L711.961 238.489L711.961 238.489L712.445 237.614ZM774.661 237.614L774.176 236.739L774.172 236.741L774.661 237.614ZM795.257 217.301L794.389 216.805L794.385 216.812L795.257 217.301ZM802.643 5.0909H864.149V3.0909H802.643V5.0909ZM863.149 4.0909V193.011H865.149V4.0909H863.149ZM863.149 193.011C863.149 214.058 858.125 232.427 848.107 248.156L849.794 249.23C860.041 233.141 865.149 214.389 865.149 193.011H863.149ZM848.105 248.16C838.172 263.901 824.255 276.186 806.321 285.012L807.204 286.806C825.445 277.829 839.652 265.303 849.796 249.227L848.105 248.16ZM806.325 285.01C788.398 293.739 767.483 298.119 743.553 298.119V300.119C767.728 300.119 788.953 295.693 807.201 286.808L806.325 285.01ZM743.553 298.119C719.527 298.119 698.564 293.738 680.638 285.01L679.763 286.808C698.011 295.693 719.283 300.119 743.553 300.119V298.119ZM680.642 285.012C662.708 276.186 648.791 263.901 638.859 248.16L637.167 249.227C647.311 265.303 661.518 277.829 679.759 286.806L680.642 285.012ZM638.859 248.16C628.934 232.43 623.956 214.059 623.956 193.011H621.956C621.956 214.388 627.016 233.138 637.167 249.227L638.859 248.16ZM623.956 193.011V4.0909H621.956V193.011H623.956ZM622.956 5.0909H684.462V3.0909H622.956V5.0909ZM683.462 4.0909V187.756H685.462V4.0909H683.462ZM683.462 187.756C683.462 198.985 685.911 209.006 690.834 217.79L692.578 216.812C687.842 208.362 685.462 198.685 685.462 187.756H683.462ZM690.838 217.797C695.855 226.578 702.903 233.478 711.961 238.489L712.929 236.739C704.183 231.901 697.405 225.259 692.574 216.805L690.838 217.797ZM711.961 238.489C721.033 243.507 731.574 246 743.553 246V244C731.857 244 721.659 241.568 712.929 236.739L711.961 238.489ZM743.553 246C755.624 246 766.167 243.508 775.149 238.486L774.172 236.741C765.54 241.568 755.345 244 743.553 244V246ZM775.145 238.489C784.204 233.477 791.206 226.575 796.129 217.79L794.385 216.812C789.649 225.262 782.92 231.902 774.176 236.739L775.145 238.489ZM796.125 217.797C801.146 209.012 803.643 198.989 803.643 187.756H801.643C801.643 198.682 799.217 208.356 794.389 216.805L796.125 217.797ZM803.643 187.756V4.0909H801.643V187.756H803.643ZM914.753 295H913.753V296H914.753V295ZM914.753 4.0909V3.0909H913.753V4.0909H914.753ZM976.259 4.0909H977.259V3.0909H976.259V4.0909ZM976.259 244.29H975.259V245.29H976.259V244.29ZM1100.97 244.29H1101.97V243.29H1100.97V244.29ZM1100.97 295V296H1101.97V295H1100.97ZM915.753 295V4.0909H913.753V295H915.753ZM914.753 5.0909H976.259V3.0909H914.753V5.0909ZM975.259 4.0909V244.29H977.259V4.0909H975.259ZM976.259 245.29H1100.97V243.29H976.259V245.29ZM1099.97 244.29V295H1101.97V244.29H1099.97ZM1100.97 294H914.753V296H1100.97V294ZM1321.39 4.0909V3.0909H1320.39V4.0909H1321.39ZM1382.9 4.0909H1383.9V3.0909H1382.9V4.0909ZM1367.7 248.693L1366.86 248.156L1366.85 248.16L1367.7 248.693ZM1325.51 285.909L1325.95 286.808L1325.95 286.806L1325.51 285.909ZM1198.95 285.909L1198.51 286.806L1198.51 286.808L1198.95 285.909ZM1156.76 248.693L1155.92 249.227L1155.92 249.227L1156.76 248.693ZM1141.71 4.0909V3.0909H1140.71V4.0909H1141.71ZM1203.21 4.0909H1204.21V3.0909H1203.21V4.0909ZM1210.46 217.301L1209.58 217.79L1209.59 217.797L1210.46 217.301ZM1231.19 237.614L1230.71 238.489L1230.71 238.489L1231.19 237.614ZM1293.41 237.614L1292.93 236.739L1292.92 236.741L1293.41 237.614ZM1314.01 217.301L1313.14 216.805L1313.13 216.812L1314.01 217.301ZM1321.39 5.0909H1382.9V3.0909H1321.39V5.0909ZM1381.9 4.0909V193.011H1383.9V4.0909H1381.9ZM1381.9 193.011C1381.9 214.058 1376.87 232.427 1366.86 248.156L1368.54 249.23C1378.79 233.141 1383.9 214.389 1383.9 193.011H1381.9ZM1366.85 248.16C1356.92 263.901 1343 276.186 1325.07 285.012L1325.95 286.806C1344.19 277.829 1358.4 265.303 1368.55 249.227L1366.85 248.16ZM1325.08 285.01C1307.15 293.739 1286.23 298.119 1262.3 298.119V300.119C1286.48 300.119 1307.7 295.693 1325.95 286.808L1325.08 285.01ZM1262.3 298.119C1238.28 298.119 1217.31 293.738 1199.39 285.01L1198.51 286.808C1216.76 295.693 1238.03 300.119 1262.3 300.119V298.119ZM1199.39 285.012C1181.46 276.186 1167.54 263.901 1157.61 248.16L1155.92 249.227C1166.06 265.303 1180.27 277.829 1198.51 286.806L1199.39 285.012ZM1157.61 248.16C1147.68 232.43 1142.71 214.059 1142.71 193.011H1140.71C1140.71 214.388 1145.77 233.138 1155.92 249.227L1157.61 248.16ZM1142.71 193.011V4.0909H1140.71V193.011H1142.71ZM1141.71 5.0909H1203.21V3.0909H1141.71V5.0909ZM1202.21 4.0909V187.756H1204.21V4.0909H1202.21ZM1202.21 187.756C1202.21 198.985 1204.66 209.006 1209.58 217.79L1211.33 216.812C1206.59 208.362 1204.21 198.685 1204.21 187.756H1202.21ZM1209.59 217.797C1214.61 226.578 1221.65 233.478 1230.71 238.489L1231.68 236.739C1222.93 231.901 1216.16 225.259 1211.32 216.805L1209.59 217.797ZM1230.71 238.489C1239.78 243.507 1250.32 246 1262.3 246V244C1250.61 244 1240.41 241.568 1231.68 236.739L1230.71 238.489ZM1262.3 246C1274.37 246 1284.92 243.508 1293.9 238.486L1292.92 236.741C1284.29 241.568 1274.09 244 1262.3 244V246ZM1293.89 238.489C1302.95 233.477 1309.96 226.575 1314.88 217.79L1313.13 216.812C1308.4 225.262 1301.67 231.902 1292.93 236.739L1293.89 238.489ZM1314.88 217.797C1319.9 209.012 1322.39 198.989 1322.39 187.756H1320.39C1320.39 198.682 1317.97 208.356 1313.14 216.805L1314.88 217.797ZM1322.39 187.756V4.0909H1320.39V187.756H1322.39ZM1591.32 87.7557L1590.32 87.8544L1590.41 88.7557H1591.32V87.7557ZM1516.17 55.7955L1516.54 56.7249L1516.55 56.7204L1516.17 55.7955ZM1500.26 67.3011L1499.46 66.7011L1499.46 66.7111L1500.26 67.3011ZM1494.87 84.0625L1495.87 84.0988L1495.87 84.0807V84.0625H1494.87ZM1498.13 97.6989L1497.28 98.2195L1497.28 98.227L1497.29 98.2344L1498.13 97.6989ZM1508.22 107.784L1507.66 108.616L1507.67 108.62L1507.68 108.625L1508.22 107.784ZM1522.99 115.028L1522.64 115.965L1522.65 115.968L1522.66 115.971L1522.99 115.028ZM1540.89 120.142L1541.12 119.169L1541.11 119.168L1541.11 119.166L1540.89 120.142ZM1567.03 126.392L1566.79 127.365L1566.8 127.366L1566.81 127.368L1567.03 126.392ZM1601.97 137.756L1601.56 138.669L1601.56 138.669L1601.97 137.756ZM1629.53 155.227L1630.19 154.48L1630.19 154.48L1629.53 155.227ZM1647.57 179.659L1646.65 180.073L1646.66 180.08L1647.57 179.659ZM1654.24 211.903L1655.24 211.909L1655.24 211.896L1654.24 211.903ZM1640.61 258.21L1639.78 257.643L1639.78 257.644L1640.61 258.21ZM1601.97 288.466L1602.36 289.387L1602.36 289.386L1601.97 288.466ZM1479.95 288.324L1479.57 289.247L1479.57 289.248L1479.95 288.324ZM1439.33 256.364L1438.5 256.926L1438.5 256.932L1439.33 256.364ZM1424.13 203.665V202.665H1423.1L1423.13 203.687L1424.13 203.665ZM1483.64 203.665L1484.64 203.597L1484.58 202.665H1483.64V203.665ZM1492.03 228.097L1491.23 228.698L1491.23 228.705L1491.24 228.711L1492.03 228.097ZM1512.05 242.727L1511.68 243.657L1511.7 243.661L1512.05 242.727ZM1567.74 243.011L1567.37 242.08L1567.37 242.081L1567.74 243.011ZM1585.78 230.369L1586.56 230.989L1586.56 230.989L1585.78 230.369ZM1586.34 195.284L1585.58 195.932L1585.59 195.941L1586.34 195.284ZM1569.58 183.92L1569.19 184.84L1569.19 184.841L1569.58 183.92ZM1542.74 175.398L1542.49 176.368L1542.5 176.37L1542.74 175.398ZM1511.06 167.443L1511.3 166.473L1511.3 166.472L1511.06 167.443ZM1452.96 139.46L1452.3 140.206L1452.3 140.206L1452.96 139.46ZM1431.8 88.1818L1432.8 88.1862L1432.8 88.1764L1431.8 88.1818ZM1445.86 42.017L1445.05 41.4292L1445.05 41.4331L1445.86 42.017ZM1598.56 11.1932L1598.14 12.1021L1598.14 12.103L1598.56 11.1932ZM1636.34 42.017L1635.52 42.5813L1635.52 42.5813L1636.34 42.017ZM1650.26 87.7557V88.7557H1651.28L1651.26 87.7393L1650.26 87.7557ZM1592.31 87.657C1591.15 75.9409 1586.14 66.7723 1577.28 60.2458L1576.09 61.8564C1584.46 68.0193 1589.21 76.6538 1590.32 87.8544L1592.31 87.657ZM1577.28 60.2458C1568.43 53.7345 1556.51 50.5341 1541.6 50.5341V52.5341C1556.24 52.5341 1567.7 55.6783 1576.09 61.8564L1577.28 60.2458ZM1541.6 50.5341C1531.47 50.5341 1522.86 51.9662 1515.79 54.8705L1516.55 56.7204C1523.31 53.9429 1531.65 52.5341 1541.6 52.5341V50.5341ZM1515.8 54.8661C1508.76 57.6661 1503.29 61.6015 1499.46 66.7011L1501.06 67.9011C1504.63 63.1523 1509.76 59.4172 1516.54 56.7248L1515.8 54.8661ZM1499.46 66.7111C1495.73 71.8111 1493.87 77.606 1493.87 84.0625H1495.87C1495.87 78.019 1497.6 72.6396 1501.07 67.8911L1499.46 66.7111ZM1493.87 84.0262C1493.67 89.401 1494.8 94.146 1497.28 98.2195L1498.99 97.1783C1496.74 93.4865 1495.68 89.1407 1495.87 84.0988L1493.87 84.0262ZM1497.29 98.2344C1499.83 102.248 1503.3 105.707 1507.66 108.616L1508.77 106.952C1504.62 104.18 1501.36 100.915 1498.98 97.1633L1497.29 98.2344ZM1507.68 108.625C1512.01 111.416 1517 113.861 1522.64 115.965L1523.34 114.091C1517.81 112.029 1512.95 109.645 1508.76 106.944L1507.68 108.625ZM1522.66 115.971C1528.28 117.974 1534.29 119.689 1540.67 121.118L1541.11 119.166C1534.8 117.754 1528.87 116.06 1523.33 114.086L1522.66 115.971ZM1540.66 121.115L1566.79 127.365L1567.26 125.419L1541.12 119.169L1540.66 121.115ZM1566.81 127.368C1579.44 130.196 1591.02 133.964 1601.56 138.669L1602.38 136.843C1591.7 132.078 1579.99 128.27 1567.24 125.416L1566.81 127.368ZM1601.56 138.669C1612.08 143.367 1621.18 149.137 1628.86 155.974L1630.19 154.48C1622.34 147.492 1613.07 141.614 1602.38 136.843L1601.56 138.669ZM1628.86 155.974C1636.52 162.795 1642.45 170.826 1646.65 180.073L1648.48 179.245C1644.16 169.742 1638.06 161.485 1630.19 154.48L1628.86 155.974ZM1646.66 180.08C1650.94 189.305 1653.15 199.908 1653.24 211.911L1655.24 211.896C1655.15 199.656 1652.9 188.763 1648.47 179.238L1646.66 180.08ZM1653.24 211.898C1653.15 229.526 1648.65 244.76 1639.78 257.643L1641.43 258.777C1650.55 245.524 1655.15 229.887 1655.24 211.909L1653.24 211.898ZM1639.78 257.644C1631 270.437 1618.29 280.411 1601.58 287.546L1602.36 289.386C1619.36 282.127 1632.4 271.93 1641.43 258.776L1639.78 257.644ZM1601.58 287.545C1584.97 294.582 1564.89 298.119 1541.32 298.119V300.119C1565.09 300.119 1585.44 296.554 1602.36 289.387L1601.58 287.545ZM1541.32 298.119C1517.93 298.119 1497.61 294.536 1480.33 287.4L1479.57 289.248C1497.14 296.506 1517.73 300.119 1541.32 300.119V298.119ZM1480.34 287.4C1463.17 280.27 1449.78 269.732 1440.15 255.795L1438.5 256.932C1448.38 271.215 1462.08 281.984 1479.57 289.247L1480.34 287.4ZM1440.15 255.801C1430.62 241.788 1425.6 224.42 1425.13 203.642L1423.13 203.687C1423.6 224.766 1428.71 242.53 1438.5 256.926L1440.15 255.801ZM1424.13 204.665H1483.64V202.665H1424.13V204.665ZM1482.65 203.733C1483.32 213.642 1486.16 221.981 1491.23 228.698L1492.82 227.495C1488.04 221.144 1485.29 213.195 1484.64 203.597L1482.65 203.733ZM1491.24 228.711C1496.38 235.304 1503.2 240.283 1511.68 243.656L1512.42 241.798C1504.24 238.543 1497.71 233.767 1492.81 227.482L1491.24 228.711ZM1511.7 243.661C1520.26 246.932 1529.9 248.557 1540.61 248.557V246.557C1530.1 246.557 1520.71 244.962 1512.41 241.793L1511.7 243.661ZM1540.61 248.557C1551.12 248.557 1560.29 247.028 1568.1 243.941L1567.37 242.081C1559.84 245.055 1550.93 246.557 1540.61 246.557V248.557ZM1568.1 243.943C1576 240.862 1582.17 236.553 1586.56 230.989L1584.99 229.75C1580.86 234.981 1575.01 239.1 1567.37 242.08L1568.1 243.943ZM1586.56 230.989C1590.96 225.411 1593.17 218.989 1593.17 211.761H1591.17C1591.17 218.549 1589.11 224.532 1584.99 229.75L1586.56 230.989ZM1593.17 211.761C1593.17 205.013 1591.16 199.279 1587.1 194.627L1585.59 195.941C1589.3 200.19 1591.17 205.441 1591.17 211.761H1593.17ZM1587.11 194.636C1583.19 190.031 1577.45 186.164 1569.97 182.999L1569.19 184.841C1576.49 187.927 1581.93 191.636 1585.58 195.932L1587.11 194.636ZM1569.98 183.001C1562.62 179.848 1553.61 176.991 1542.97 174.426L1542.5 176.37C1553.07 178.918 1561.96 181.743 1569.19 184.84L1569.98 183.001ZM1542.98 174.428L1511.3 166.473L1510.82 168.413L1542.49 176.368L1542.98 174.428ZM1511.3 166.472C1486.88 160.532 1467.68 151.265 1453.63 138.714L1452.3 140.206C1466.66 153.035 1486.19 162.422 1510.82 168.415L1511.3 166.472ZM1453.63 138.714C1439.67 126.241 1432.7 109.437 1432.8 88.1862L1430.8 88.1774C1430.7 109.919 1437.85 127.3 1452.3 140.206L1453.63 138.714ZM1432.8 88.1764C1432.7 70.755 1437.34 55.5773 1446.67 42.601L1445.05 41.4331C1435.45 54.7825 1430.7 70.3814 1430.8 88.1872L1432.8 88.1764ZM1446.67 42.6049C1456.12 29.601 1469.09 19.4312 1485.61 12.1074L1484.8 10.2789C1467.99 17.7279 1454.73 28.1073 1445.05 41.4292L1446.67 42.6049ZM1485.61 12.1074C1502.13 4.7861 1520.93 1.11363 1542.03 1.11363V-0.886374C1520.7 -0.886374 1501.62 2.82752 1484.8 10.2789L1485.61 12.1074ZM1542.03 1.11363C1563.5 1.11363 1582.2 4.7874 1598.14 12.1021L1598.98 10.2843C1582.72 2.82622 1563.73 -0.886374 1542.03 -0.886374V1.11363ZM1598.14 12.103C1614.19 19.4228 1626.64 29.5859 1635.52 42.5813L1637.17 41.4528C1628.06 28.1224 1615.31 17.7363 1598.97 10.2834L1598.14 12.103ZM1635.52 42.5813C1644.39 55.5685 1648.98 70.6205 1649.26 87.7721L1651.26 87.7393C1650.98 70.2318 1646.29 54.7914 1637.17 41.4528L1635.52 42.5813ZM1650.26 86.7557H1591.32V88.7557H1650.26V86.7557Z" fill="black"/>
</g>
<defs>
<filter id="filter0_d_7_78" x="0.170471" y="0.113647" width="1658.07" height="307.006" filterUnits="userSpaceOnUse" color-interpolation-filters="sRGB">
<feFlood flood-opacity="0" result="BackgroundImageFix"/>
<feColorMatrix in="SourceAlpha" type="matrix" values="0 0 0 0 0 0 0 0 0 0 0 0 0 0 0 0 0 0 127 0" result="hardAlpha"/>
<feOffset dy="4"/>
<feGaussianBlur stdDeviation="2"/>
<feComposite in2="hardAlpha" operator="out"/>
<feColorMatrix type="matrix" values="0 0 0 0 0 0 0 0 0 0 0 0 0 0 0 0 0 0 0.25 0"/>
<feBlend mode="normal" in2="BackgroundImageFix" result="effect1_dropShadow_7_78"/>
<feBlend mode="normal" in="SourceGraphic" in2="effect1_dropShadow_7_78" result="shape"/>
</filter>
<linearGradient id="paint0_linear_7_78" x1="827.5" y1="-92" x2="827.5" y2="295" gradientUnits="userSpaceOnUse">
<stop stop-color="#BC10D8"/>
<stop offset="1" stop-color="#5000FA" stop-opacity="0.93"/>
</linearGradient>
</defs>
</svg>
